<svg xmlns="http://www.w3.org/2000/svg" width="24" height="24" fill="none" viewBox="0 0 24 24"><path fill="#12131A" d="M6 15C6 15.1501 5.84418 15.2518 5.71176 15.1812C3.50323 14.0038 2 11.6775 2 9C2 5.13401 5.13401 2 9 2C11.6775 2 14.0038 3.50323 15.1812 5.71176C15.2518 5.84418 15.1501 6 15 6C10.0294 6 6 10.0294 6 15Z" opacity=".25"/><circle cx="15" cy="15" r="7" fill="#12131A" opacity=".25"/><path fill="#12131A" d="M20.6063 10.8078L10.8078 20.6064C10.2717 20.2049 9.79507 19.7283 9.39355 19.1922L19.1921 9.39362C19.7282 9.79513 20.2048 10.2717 20.6063 10.8078Z"/></svg>